<svg width="22" height="17" viewBox="0 0 22 17" fill="none" xmlns="http://www.w3.org/2000/svg">
<path opacity="0.7" d="M19.6839 0.78125H1.51415C1.11257 0.78125 0.72744 0.945682 0.443483 1.23837C0.159526 1.53106 0 1.92804 0 2.34196V14.8277C0 15.2416 0.159526 15.6386 0.443483 15.9313C0.72744 16.224 1.11257 16.3884 1.51415 16.3884H19.6839C20.0855 16.3884 20.4706 16.224 20.7546 15.9313C21.0385 15.6386 21.198 15.2416 21.198 14.8277V2.34196C21.198 1.92804 21.0385 1.53106 20.7546 1.23837C20.4706 0.945682 20.0855 0.78125 19.6839 0.78125ZM18.0183 2.34196L10.599 7.63279L3.17971 2.34196H18.0183ZM1.51415 14.8277V3.05209L10.1675 9.22471C10.2942 9.31533 10.4448 9.3639 10.599 9.3639C10.7533 9.3639 10.9038 9.31533 11.0306 9.22471L19.6839 3.05209V14.8277H1.51415Z" fill="black"/>
</svg>
