<svg width="122" height="22" viewBox="0 0 122 22" fill="none" xmlns="http://www.w3.org/2000/svg">
<path fill-rule="evenodd" clip-rule="evenodd" d="M18.7026 5.3364C18.7026 8.03524 16.1646 10.2232 13.0336 10.2232C9.90254 10.2232 7.36449 8.03524 7.36449 5.3364C7.36449 2.63811 9.90254 0.450195 13.0336 0.450195C16.1646 0.450195 18.7026 2.63811 18.7026 5.3364ZM5.66914 11.4449C2.53818 11.4449 0 13.6321 0 16.331C0 19.0296 2.53818 21.2173 5.66914 21.2173C8.80022 21.2173 11.3385 19.0296 11.3385 16.331C11.3385 13.6321 8.80022 11.4449 5.66914 11.4449ZM20.398 11.4444C17.267 11.4444 14.7289 13.6321 14.7289 16.331C14.7289 19.0296 17.267 21.2173 20.398 21.2173C23.5289 21.2173 26.0671 19.0296 26.0671 16.331C26.0671 13.6321 23.5289 11.4444 20.398 11.4444Z" fill="#B3B7BC"/>
<path fill-rule="evenodd" clip-rule="evenodd" d="M46.0137 16.2748C46.0876 16.9997 46.7603 17.9224 47.9258 17.9224H48.6077C48.872 17.9224 49.0887 17.7357 49.0887 17.5076V4.58131H49.0857C49.0719 4.36354 48.8632 4.18913 48.6077 4.18913H46.4947C46.2392 4.18913 46.0305 4.36354 46.0163 4.58131H46.0137V5.63165C44.7191 4.2562 42.678 3.6853 40.6311 3.6853C35.9786 3.6853 32.207 6.93859 32.207 10.952C32.207 14.9656 35.9786 18.219 40.6311 18.219V18.2193C42.678 18.2193 44.9086 17.5343 46.0135 16.2732L46.0137 16.2748ZM40.6394 15.6757C37.6804 15.6757 35.2816 13.561 35.2816 10.952C35.2816 8.34338 37.6804 6.22858 40.6394 6.22858C43.5983 6.22858 45.9968 8.34338 45.9968 10.952C45.9968 13.561 43.5983 15.6757 40.6394 15.6757Z" fill="#B3B7BC"/>
<path fill-rule="evenodd" clip-rule="evenodd" d="M80.4395 16.2743C80.5134 16.9992 81.1861 17.9219 82.3516 17.9219H83.0335C83.2978 17.9219 83.5142 17.7352 83.5142 17.5071V4.58082H83.5115C83.4977 4.36305 83.2887 4.18864 83.0335 4.18864H80.9205C80.665 4.18864 80.4562 4.36305 80.4419 4.58082H80.4395V5.63116C79.1447 4.25571 77.1036 3.68481 75.0568 3.68481C70.4043 3.68481 66.6328 6.9381 66.6328 10.9515C66.6328 14.9651 70.4043 18.2185 75.0568 18.2185V18.2188C77.1036 18.2188 79.3344 17.5338 80.4392 16.2727L80.4395 16.2743ZM75.0649 15.6752C72.1062 15.6752 69.7073 13.5605 69.7073 10.9515C69.7073 8.34289 72.1062 6.22809 75.0649 6.22809C78.024 6.22809 80.4225 8.34289 80.4225 10.9515C80.4225 13.5605 78.024 15.6752 75.0649 15.6752Z" fill="#B3B7BC"/>
<path fill-rule="evenodd" clip-rule="evenodd" d="M118.923 16.2743C118.997 16.9992 119.67 17.9219 120.835 17.9219H121.517C121.782 17.9219 121.998 17.7352 121.998 17.5071V4.58082H121.995C121.982 4.36305 121.773 4.18864 121.517 4.18864H119.404C119.149 4.18864 118.94 4.36305 118.926 4.58082H118.923V5.63116C117.629 4.25571 115.588 3.68481 113.541 3.68481C108.888 3.68481 105.117 6.9381 105.117 10.9515C105.117 14.9651 108.888 18.2185 113.541 18.2185V18.2188C115.588 18.2188 117.818 17.5338 118.923 16.2727L118.923 16.2743ZM113.549 15.6752C110.59 15.6752 108.191 13.5605 108.191 10.9515C108.191 8.34289 110.59 6.22809 113.549 6.22809C116.508 6.22809 118.907 8.34289 118.907 10.9515C118.907 13.5605 116.508 15.6752 113.549 15.6752Z" fill="#B3B7BC"/>
<path fill-rule="evenodd" clip-rule="evenodd" d="M102.444 16.7197L102.443 10.0309H102.443C102.443 6.2604 99.6856 3.7168 95.2882 3.7168C93.1891 3.7168 91.4683 4.76383 90.8606 5.66325C90.7292 4.95997 90.2963 4.22073 88.954 4.22073H88.2698C88.0052 4.22073 87.7891 4.40761 87.7891 4.63564V16.3075V16.3093V17.5631H87.7918C87.8056 17.7805 88.0145 17.9551 88.2701 17.9551H90.383C90.4154 17.9551 90.4471 17.9518 90.4778 17.9466C90.4918 17.9443 90.5048 17.9396 90.5184 17.9363C90.5341 17.9321 90.5504 17.9289 90.5654 17.9236C90.5842 17.9169 90.6012 17.9078 90.6187 17.8994C90.6273 17.8949 90.6363 17.8917 90.6446 17.887C90.6657 17.8753 90.685 17.8611 90.7037 17.8467C90.7067 17.844 90.7104 17.8423 90.7135 17.8398C90.7345 17.8223 90.7537 17.803 90.7707 17.7829L90.7708 17.7826C90.8237 17.7199 90.8559 17.6445 90.8611 17.5631H90.8638V9.92716C90.8638 7.90216 92.7672 6.2604 95.115 6.2604C97.4626 6.2604 99.366 7.90216 99.366 9.92716L99.3679 16.3097L99.3684 16.3075C99.3684 16.3132 99.3694 16.319 99.3694 16.3251V17.5631H99.3723C99.3862 17.7805 99.5949 17.9551 99.8504 17.9551H101.964C101.996 17.9551 102.028 17.9518 102.058 17.9466C102.071 17.9447 102.082 17.9403 102.095 17.9374C102.112 17.9331 102.13 17.9293 102.146 17.9236C102.163 17.9174 102.179 17.9088 102.196 17.9009C102.206 17.896 102.216 17.8925 102.226 17.887C102.245 17.8759 102.263 17.8626 102.28 17.8493C102.285 17.8458 102.29 17.8432 102.294 17.8395C102.314 17.8229 102.332 17.8049 102.348 17.786C102.35 17.7846 102.351 17.7835 102.352 17.782C102.404 17.7199 102.436 17.645 102.441 17.5642C102.441 17.5636 102.442 17.5631 102.442 17.5631H102.445V16.7199L102.444 16.7197Z" fill="#B3B7BC"/>
<path fill-rule="evenodd" clip-rule="evenodd" d="M54.1356 14.4232C55.5462 15.2661 57.0859 15.6755 58.5655 15.6755C59.9751 15.6755 61.4324 15.0452 61.4324 13.9481C61.4324 12.4832 58.2569 12.2553 56.2619 11.6704C54.2664 11.0855 52.5477 9.87643 52.5477 7.91839C52.5477 4.92225 55.6426 3.68481 58.5313 3.68481C60.3615 3.68481 62.2499 4.20541 63.4742 4.95116C63.8958 5.22673 63.639 5.54313 63.639 5.54313L62.4704 6.98289C62.339 7.14506 62.1093 7.28516 61.7796 7.10964C61.45 6.93424 60.2936 6.2282 58.5313 6.2282C56.7688 6.2282 55.7072 6.93027 55.7072 7.80046C55.7072 8.84396 57.087 9.17215 58.7031 9.52782C61.5195 10.1827 64.5918 10.9698 64.5918 13.9481C64.5918 16.5879 61.7293 18.2192 58.5655 18.2192C56.168 18.2192 54.1268 17.6297 52.4148 16.546C52.0581 16.2381 52.3073 15.9523 52.3073 15.9523L53.4702 14.5198C53.7068 14.252 54.0051 14.3454 54.1356 14.4232Z" fill="#B3B7BC"/>
</svg>
