<svg width="120" height="18" viewBox="0 0 120 18" fill="none" xmlns="http://www.w3.org/2000/svg">
<path d="M11.874 8.96834C12.8285 9.0342 13.6303 9.36353 14.3175 9.98925C15.0048 10.615 15.3484 11.4712 15.3484 12.558C15.3484 13.8753 14.8521 14.9621 13.8212 15.7525C12.7903 16.5429 11.3395 16.9381 9.3923 16.9381H0V1.32794H9.35412C10.9959 1.32794 12.3322 1.72313 13.3248 2.48059C14.3175 3.27097 14.8139 4.29189 14.8139 5.57626C14.8139 6.56425 14.5084 7.3217 13.8594 7.91449C13.2103 8.50728 12.5612 8.80367 11.8358 8.86954L11.874 8.96834ZM4.46707 7.78276H8.36144C9.0105 7.78276 9.54502 7.6181 9.965 7.28877C10.3468 6.95944 10.5759 6.56425 10.5759 6.00439C10.5759 5.5104 10.385 5.14814 10.0032 4.85174C9.62138 4.55535 9.12504 4.42362 8.55234 4.42362H4.46707V7.78276ZM8.59052 13.8424C9.27776 13.8424 9.85046 13.6777 10.2323 13.3813C10.6141 13.0849 10.805 12.6568 10.805 12.097C10.805 11.57 10.6141 11.1748 10.1941 10.8784C9.81228 10.582 9.27776 10.4174 8.66688 10.4174H4.46707V13.8424H8.59052ZM30.8113 16.9381H26.497V15.8184C25.4279 16.8063 24.0153 17.3003 22.3353 17.3003C20.7318 17.3003 19.4718 16.8393 18.5173 15.9501C17.5628 15.0609 17.0665 13.8753 17.0665 12.4263V5.24694H21.3427V11.6359C21.3427 12.3275 21.5717 12.8873 21.9917 13.3155C22.4117 13.7436 22.9844 13.9412 23.6717 13.9412C24.5498 13.9412 25.237 13.6777 25.7334 13.1508C26.2297 12.6239 26.4588 11.8006 26.4588 10.6808V5.24694H30.7731L30.8113 16.9381ZM44.1362 16.9381H32.6822V16.2465L38.0655 8.21089H32.8349V5.24694H44.0598V5.93853L38.6764 13.9741H44.098V16.9381H44.1362ZM57.4228 16.9381H46.007V16.2465L51.3522 8.21089H46.1215V5.24694H57.3465V5.93853L51.9631 13.9741H57.3847L57.4228 16.9381ZM63.8371 8.01329H71.664V11.3724H63.8371V16.971H59.37V1.32794H72.3513V4.68708H63.8371V8.01329ZM103.315 12.064H93.3885C93.6557 13.5131 94.9157 14.3364 96.7865 14.3364C98.2755 14.3364 99.7645 13.8424 100.872 13.0849L102.514 15.5549C100.986 16.6746 99.0391 17.3003 96.7865 17.3003C92.2431 17.3003 89.1505 14.9292 89.1505 11.109C89.1505 9.29767 89.8377 7.81569 91.2122 6.66305C92.5867 5.5104 94.3048 4.91761 96.3284 4.91761C98.2755 4.91761 99.9173 5.47747 101.254 6.63011C102.59 7.78276 103.277 9.26473 103.315 11.1419V12.064ZM94.5721 8.40848C94.0375 8.73781 93.6557 9.19887 93.4648 9.75873H99.0391C98.8482 9.16594 98.5046 8.70488 98.0083 8.37555C97.5119 8.07915 96.9392 7.91449 96.3284 7.91449C95.6793 7.91449 95.1066 8.07915 94.5721 8.40848ZM87.5088 12.064H77.5819C77.8492 13.5131 79.1091 14.3364 80.98 14.3364C82.469 14.3364 83.958 13.8424 85.0652 13.0849L86.707 15.5549C85.1798 16.6746 83.2326 17.3003 80.98 17.3003C76.4365 17.3003 73.3439 14.9292 73.3439 11.109C73.3439 9.29767 74.0312 7.81569 75.4057 6.66305C76.7801 5.5104 78.4983 4.91761 80.5218 4.91761C82.469 4.91761 84.1107 5.47747 85.447 6.63011C86.7833 7.78276 87.4706 9.26473 87.5088 11.1419V12.064ZM78.7655 8.40848C78.231 8.73781 77.8492 9.19887 77.6583 9.75873H83.2326C83.0417 9.16594 82.6981 8.70488 82.2017 8.37555C81.7054 8.07915 81.1327 7.91449 80.5218 7.91449C79.8727 7.91449 79.3 8.07915 78.7655 8.40848ZM120 16.9381H115.686V16.0159C114.578 16.8722 113.204 17.3003 111.486 17.3003C109.653 17.3003 108.088 16.7075 106.79 15.5549C105.492 14.4022 104.842 12.9203 104.842 11.109C104.842 9.29767 105.492 7.81569 106.79 6.66305C108.088 5.5104 109.653 4.91761 111.486 4.91761C113.204 4.91761 114.617 5.34574 115.686 6.20199V0.175293H120V16.9381ZM114.731 13.2825C115.38 12.7227 115.724 11.9982 115.724 11.109C115.724 10.2527 115.38 9.5282 114.731 8.93541C114.082 8.37555 113.28 8.07915 112.402 8.07915C111.448 8.07915 110.684 8.37555 110.073 8.93541C109.462 9.49526 109.157 10.2198 109.157 11.109C109.157 11.9982 109.462 12.7556 110.073 13.3155C110.684 13.8753 111.448 14.1388 112.402 14.1388C113.28 14.1388 114.044 13.8424 114.731 13.2825Z" fill="#B3B7BC"/>
</svg>
