<svg width="133" height="28" viewBox="0 0 133 28" fill="none" xmlns="http://www.w3.org/2000/svg">
<path d="M0 5.81547C0 5.81547 3.3042 17.5161 3.83153 19.4153C4.44703 21.6319 5.55605 22.4478 8.75354 21.8976L10.8168 14.6433C11.3397 12.8414 11.6904 11.5567 12.0266 9.72372H12.0857C12.3219 11.5747 12.6582 12.8468 13.0885 14.6496C13.0885 14.6496 13.9284 17.9429 14.3585 19.6726C14.7898 21.4017 15.9899 22.4915 19.1218 21.8982L24.038 5.8167H20.0688L18.3904 12.7695C17.9392 14.7933 17.5297 16.3747 17.214 18.2262H17.158C16.8711 16.3932 16.5062 14.8745 16.0474 12.9026L14.2999 5.8167H10.1643L8.29505 12.7241C7.76547 14.823 7.27015 16.518 6.95517 18.3067H6.89813C6.57556 16.6222 6.14593 14.492 5.68069 12.4601C5.68069 12.4601 4.57011 7.51965 4.18045 5.8167L0.000386466 5.81716L0 5.81547ZM37.838 5.81547V21.897H41.617V18.4821V5.8147H37.838V5.81547ZM91.0617 5.81547V17.6791C91.0617 19.3148 91.4179 20.4607 92.18 21.1608C92.8458 21.7732 93.9425 22.1696 95.2566 22.1696C96.3739 22.1696 97.4732 21.9865 97.9913 21.8198L97.9426 19.2677C97.5571 19.3497 97.1136 19.4153 96.507 19.4153C95.2197 19.4153 94.788 18.7028 94.788 17.2342V12.6952H98.0792V9.61834H94.788V5.81551H91.0615L91.0617 5.81547ZM29.3928 9.5435C27.0442 9.5435 25.18 10.1133 24.1637 10.6208L24.9074 12.8215C25.8375 12.3148 27.3183 11.8954 28.7204 11.8954C31.0419 11.8902 31.4214 13.0297 31.4214 13.7606V13.9334C26.363 13.9268 23.1678 15.4395 23.1678 18.5228C23.1678 20.4054 24.7943 22.1696 27.6227 22.1696C29.3637 22.1696 30.8198 21.5695 31.6925 20.6081H31.7781C31.7781 20.6081 32.3559 22.6961 35.5396 21.8976C35.3724 21.0286 35.318 20.102 35.318 18.9861V14.69C35.318 11.9518 33.9652 9.54355 29.3928 9.54355L29.3928 9.5435ZM51.9984 9.5435C49.6336 9.5435 48.5709 10.5791 47.9266 11.4578H47.8706V9.81622H44.2642V21.8977H48.0633V14.8124C48.0633 14.4803 48.1072 14.129 48.2414 13.8235C48.5561 13.1101 49.3242 12.2756 50.5504 12.2756C52.0833 12.2756 52.8006 13.3956 52.8006 15.0119V21.8976H56.5956V14.7266C56.5956 14.4095 56.6459 14.0276 56.7539 13.7472C57.0659 12.9358 57.8939 12.2755 59.0337 12.2755C60.5878 12.2755 61.3336 13.376 61.3336 15.2779V21.8976H65.1313V14.782C65.1313 11.0294 62.9263 9.54356 60.4373 9.54356C59.3349 9.54356 58.4649 9.78242 57.6782 10.1998C57.017 10.5504 56.4251 11.0486 55.9077 11.7045H55.8517C55.2497 10.4025 53.8374 9.54356 51.9977 9.54356L51.9984 9.5435ZM72.8604 9.5435C70.5124 9.5435 68.6485 10.1133 67.6314 10.6208L68.3761 12.8215C69.3052 12.3148 70.787 11.8954 72.1884 11.8954C74.5083 11.8902 74.8887 13.0297 74.8887 13.7606V13.9334C69.8309 13.9268 66.6354 15.4395 66.6354 18.5228C66.6354 20.4054 68.2628 22.1696 71.0926 22.1696C72.8322 22.1696 74.2888 21.5695 75.1599 20.6081H75.2458C75.2458 20.6081 75.8236 22.6961 79.0077 21.8976C78.8402 21.0286 78.7865 20.102 78.7865 18.9861V14.69C78.7865 11.9518 77.4333 9.54355 72.8604 9.54355L72.8604 9.5435ZM88.6371 9.5435C87.1824 9.5435 85.5272 10.355 84.8325 12.0946H84.7264V9.81607H81.3064V21.8976H85.2051V15.7111C85.2051 15.3773 85.2285 15.0863 85.2896 14.8195C85.578 13.5236 86.725 12.6952 88.3712 12.6952C88.8231 12.6952 89.1466 12.7375 89.4965 12.7811V9.61824C89.2031 9.567 89.0024 9.54339 88.6373 9.54339L88.6371 9.5435ZM31.5435 16.0743V17.5815C31.5435 17.8044 31.521 18.0345 31.4495 18.2356C31.1571 19.0727 30.1536 19.78 28.8992 19.78C27.8534 19.78 27.0226 19.2671 27.0226 18.182C27.0226 16.5223 29.1368 16.0635 31.5436 16.0743H31.5435ZM75.0111 16.0743V17.5815C75.0111 17.8044 74.9882 18.0345 74.9172 18.2356C74.6247 19.0727 73.6216 19.78 72.3672 19.78C71.3212 19.78 70.4903 19.2671 70.4903 18.182C70.4903 16.5223 72.6044 16.0635 75.0112 16.0743H75.0111Z" fill="#B3B7BC"/>
<path d="M118.51 0C117.29 0 116.321 0.588758 116.321 1.30551L117.062 8.55563C117.143 8.99244 117.763 9.32937 118.511 9.32937C119.261 9.32853 119.878 8.99189 119.962 8.55563L120.706 1.30551C120.706 0.58882 119.734 6.15631e-05 118.512 6.15631e-05L118.51 0ZM106.436 5.81571C105.803 5.8287 105.083 6.24309 104.626 6.92883C104.014 7.84195 104.122 8.86237 104.838 9.22036L112.473 12.2931C112.95 12.4464 113.598 12.1537 113.973 11.5948C113.973 11.5948 113.973 11.5946 113.973 11.5945C114.35 11.0329 114.321 10.4014 113.924 10.1213L107.028 5.94145C106.849 5.85181 106.648 5.81147 106.437 5.8158L106.436 5.81571ZM130.585 5.81571C130.373 5.81138 130.172 5.85172 129.994 5.94136L123.097 10.1212C122.702 10.4013 122.673 11.0328 123.048 11.5944L123.048 11.5947C123.425 12.1536 124.071 12.4463 124.548 12.293L132.186 9.22042C132.905 8.86244 133.008 7.84206 132.4 6.92889C131.941 6.24314 131.22 5.82876 130.587 5.81577L130.585 5.81571ZM112.759 15.3812C112.66 15.3801 112.564 15.3933 112.474 15.4224L104.839 18.4915C104.123 18.851 104.015 19.8718 104.627 20.7859C105.237 21.6973 106.313 22.1305 107.029 21.7731L113.925 17.5965C114.322 17.313 114.351 16.6817 113.974 16.1206L113.978 16.1218C113.673 15.6648 113.187 15.3862 112.759 15.3811L112.759 15.3812ZM124.265 15.3812C123.838 15.3863 123.353 15.6649 123.047 16.1219L123.05 16.1207C122.675 16.6818 122.704 17.3131 123.098 17.5966L129.995 21.7732C130.71 22.1306 131.787 21.6974 132.4 20.786C133.008 19.8719 132.905 18.8511 132.186 18.4916L124.549 15.4225C124.46 15.3934 124.364 15.3802 124.265 15.3813L124.265 15.3812ZM118.509 18.386C117.762 18.3867 117.144 18.7222 117.063 19.1579L116.322 26.4077C116.322 27.1257 117.291 27.7132 118.511 27.7132C119.734 27.7132 120.705 27.1257 120.705 26.4077L119.963 19.1579C119.879 18.7222 119.262 18.3868 118.512 18.386H118.509H118.509Z" fill="#B3B7BC"/>
</svg>
