<svg width="138" height="23" viewBox="0 0 138 23" fill="none" xmlns="http://www.w3.org/2000/svg">
<path d="M120.642 0.587646C120.145 0.587646 119.743 0.934752 119.743 1.36276V6.79907H136.391L128.809 0.588148L120.642 0.587646Z" fill="#B3B7BC"/>
<path d="M137.001 8.44308C137.001 8.01407 136.602 7.66846 136.102 7.66846H129.801V22.0291L136.998 15.4865L137.001 8.44308Z" fill="#B3B7BC"/>
<path d="M127.891 22.5498C128.386 22.5498 128.789 22.2022 128.789 21.7732V16.3389H112.14L119.723 22.5488L127.891 22.5498Z" fill="#B3B7BC"/>
<path d="M111.532 14.6944C111.532 15.1229 111.934 15.472 112.432 15.472H118.732V1.11035L111.533 7.65089L111.532 14.6944Z" fill="#B3B7BC"/>
<path d="M35.2228 3.2088V9.84074H24.5112V3.2088L20.6099 3.20581V19.9277H24.5112V12.7439H35.2228V19.9277H39.1306V3.2088H35.2228Z" fill="#B3B7BC"/>
<path d="M87.125 3.20898V19.9239H104.241L102.073 16.9813H91.0374V12.7441H101.724V9.90984H91.0374V6.08271H102.055L104.178 3.20898H87.125Z" fill="#B3B7BC"/>
<path d="M6.10796 3.20508C2.04971 3.20508 0 5.33315 0 8.42963V14.6715C0 18.2549 2.64143 19.928 6.08769 19.928L18.3279 19.927L16.0588 16.8705H6.84387C4.88624 16.8705 4.03337 16.2602 4.03337 14.3703V8.70731C4.03337 6.88039 4.75134 6.1677 6.89598 6.1677H16.1549L18.3337 3.20508H6.10796Z" fill="#B3B7BC"/>
<path d="M70.0017 3.20126C67.6579 3.20126 65.2556 4.41637 65.2556 7.54181V8.34489C65.2556 11.6032 67.567 12.8463 69.8795 12.8548H77.9966C78.8397 12.8548 79.5246 12.9756 79.5246 14.2047L79.5235 15.6246C79.502 16.7288 78.8634 16.9815 77.9677 16.9815H67.2891L65.1016 19.9242H78.219C81.3821 19.9242 83.5296 18.5667 83.5296 15.4313V14.2791C83.5296 11.2476 81.5344 9.81521 78.4407 9.81521H70.6901C69.8309 9.81521 69.2322 9.61294 69.2322 8.5152V7.35901C69.2322 6.42408 69.6427 6.08297 70.6438 6.08297L80.8135 6.07948L82.939 3.19727L70.0017 3.20126Z" fill="#B3B7BC"/>
<path d="M50.4652 3.20947L41.2734 19.9274H45.6177L47.408 16.4748H57.3965L59.181 19.9274H63.5444L54.3312 3.20947H50.4652ZM52.3927 6.68051L55.9246 13.6291H48.8833L52.3927 6.68051Z" fill="#B3B7BC"/>
</svg>
