<svg width="99" height="28" viewBox="0 0 99 28" fill="none" xmlns="http://www.w3.org/2000/svg">
<path d="M41.9381 14.6433C41.9381 18.6467 38.3072 21.5967 33.8514 21.5967C29.3955 21.5967 25.7646 18.6467 25.7646 14.6433C25.7646 10.6117 29.3955 7.68994 33.8514 7.68994C38.3072 7.68994 41.9381 10.6117 41.9381 14.6433ZM38.3981 14.6433C38.3981 12.1416 36.2937 10.4299 33.8514 10.4299C31.409 10.4299 29.3046 12.1416 29.3046 14.6433C29.3046 17.1199 31.409 18.8567 33.8514 18.8567C36.2937 18.8567 38.3981 17.1168 38.3981 14.6433Z" fill="#B3B7BC"/>
<path d="M59.3839 14.6433C59.3839 18.6467 55.753 21.5967 51.2972 21.5967C46.8413 21.5967 43.2104 18.6467 43.2104 14.6433C43.2104 10.6149 46.8413 7.68994 51.2972 7.68994C55.753 7.68994 59.3839 10.6117 59.3839 14.6433ZM55.8439 14.6433C55.8439 12.1416 53.7395 10.4299 51.2972 10.4299C48.8548 10.4299 46.7504 12.1416 46.7504 14.6433C46.7504 17.1199 48.8548 18.8567 51.2972 18.8567C53.7395 18.8567 55.8439 17.1168 55.8439 14.6433Z" fill="#B3B7BC"/>
<path d="M76.1022 8.11003V20.5935C76.1022 25.7286 72.5913 27.8258 68.4408 27.8258C64.5337 27.8258 62.1822 25.5718 61.2954 23.7284L64.3774 22.6218C64.9262 23.7535 66.271 25.089 68.4371 25.089C71.0939 25.089 72.7403 23.6751 72.7403 21.0136V20.0135H72.6168C71.8245 20.8568 70.298 21.5935 68.3717 21.5935C64.3411 21.5935 60.6484 18.5651 60.6484 14.6684C60.6484 10.7434 64.3411 7.68994 68.3717 7.68994C70.2943 7.68994 71.8208 8.42666 72.6168 9.24489H72.7403V8.11316H76.1022V8.11003ZM72.9911 14.6684C72.9911 12.22 71.0976 10.4299 68.6879 10.4299C66.2455 10.4299 64.1993 12.22 64.1993 14.6684C64.1993 17.0917 66.2455 18.8567 68.6879 18.8567C71.0976 18.8567 72.9911 17.0917 72.9911 14.6684Z" fill="#B3B7BC"/>
<path d="M81.6451 0.793213V21.1705H78.1924V0.793213H81.6451Z" fill="#B3B7BC"/>
<path d="M95.1011 16.9323L97.8488 18.5123C96.962 19.644 94.8249 21.594 91.1323 21.594C86.5529 21.594 83.1328 18.5405 83.1328 14.6406C83.1328 10.5056 86.5819 7.68726 90.7361 7.68726C94.9194 7.68726 96.9656 10.5589 97.6344 12.1107L98.0015 12.9007L87.2252 16.7505C88.0503 18.1455 89.3332 18.8571 91.1323 18.8571C92.935 18.8571 94.1853 18.0922 95.1011 16.9323ZM86.6437 14.4306L93.8473 11.8505C93.4511 10.9821 92.259 10.3771 90.8561 10.3771C89.057 10.3771 86.5529 11.747 86.6437 14.4306Z" fill="#B3B7BC"/>
<path d="M12.6952 12.8346V9.88456H24.2202C24.3328 10.3987 24.391 11.0069 24.391 11.6652C24.391 13.8785 23.6895 16.6153 21.4289 18.5653C19.23 20.5403 16.4206 21.5937 12.6989 21.5937C5.80063 21.5937 0 16.747 0 10.7968C0 4.84666 5.80063 0 12.6989 0C16.5151 0 19.2337 1.29161 21.2762 2.97509L18.8629 5.05671C17.3982 3.87169 15.4138 2.95001 12.6952 2.95001C7.65785 2.95001 3.71807 6.45177 3.71807 10.7968C3.71807 15.1419 7.65785 18.6437 12.6952 18.6437C15.9626 18.6437 17.8235 17.5119 19.0156 16.4837C19.9824 15.6498 20.6184 14.4585 20.8692 12.8314L12.6952 12.8346Z" fill="#B3B7BC"/>
</svg>
