<svg width="64" height="64" viewBox="0 0 64 64" fill="none" xmlns="http://www.w3.org/2000/svg">
<rect width="64" height="64" rx="32" fill="#E3E2FD"/>
<path fill-rule="evenodd" clip-rule="evenodd" d="M29.6228 42.9407C29.2539 42.9799 28.8793 43 28.5 43C22.701 43 18 38.299 18 32.5C18 26.701 22.701 22 28.5 22C28.8793 22 29.2539 22.0201 29.6228 22.0593C26.2344 24.2953 23.9986 28.1366 23.9986 32.5C23.9986 36.8634 26.2344 40.7047 29.6228 42.9407ZM32.4993 42.2115C28.6841 40.6386 25.9986 36.8829 25.9986 32.5C25.9986 28.1171 28.6841 24.3614 32.4993 22.7885C36.3146 24.3614 39 28.1171 39 32.5C39 36.8829 36.3146 40.6386 32.4993 42.2115ZM32.4993 44.3465C31.2436 44.7703 29.8986 45 28.5 45C21.5964 45 16 39.4036 16 32.5C16 25.5964 21.5964 20 28.5 20C29.8986 20 31.2436 20.2297 32.4993 20.6535C33.755 20.2297 35.1 20 36.4986 20C43.4022 20 48.9986 25.5964 48.9986 32.5C48.9986 39.4036 43.4022 45 36.4986 45C35.1 45 33.755 44.7703 32.4993 44.3465ZM35.3758 22.0593C35.7447 22.0201 36.1193 22 36.4986 22C42.2976 22 46.9986 26.701 46.9986 32.5C46.9986 38.299 42.2976 43 36.4986 43C36.1193 43 35.7447 42.9799 35.3758 42.9407C38.7643 40.7047 41 36.8634 41 32.5C41 28.1366 38.7643 24.2953 35.3758 22.0593Z" fill="#0F0BC7"/>
</svg>
